<?xml version="1.0" encoding="utf-8"?>
<!-- Svg Vector Icons : http://www.onlinewebfonts.com/icon -->
<!DOCTYPE svg PUBLIC "-//W3C//DTD SVG 1.1//EN" "http://www.w3.org/Graphics/SVG/1.1/DTD/svg11.dtd">
<svg version="1.1" xmlns="http://www.w3.org/2000/svg" xmlns:xlink="http://www.w3.org/1999/xlink" x="0px" y="0px" viewBox="0 0 256 256" enable-background="new 0 0 256 256" xml:space="preserve">
<metadata> Svg Vector Icons : http://www.onlinewebfonts.com/icon </metadata>
<g><g><path fill="#000000" d="M192.3,174.1L192.3,174.1l-41.6-20.8c1.9-8.3,0.4-17.1-4.6-24.5l7.6-6.1c8.8,5.4,20.4,4.5,28-3.2c8.9-8.9,8.9-23.2,0-32.1c-8.8-8.9-23.2-8.9-32.1,0c-7.8,7.7-8.7,19.8-2.8,28.7l-7.2,5.7c-4.9-4-10.8-6.2-16.7-6.7L118.8,80c3.3-1.5,6.3-3.6,9-6.3c12.3-12.3,12.3-32.2,0-44.5c-12.3-12.3-32.2-12.3-44.5,0C71,41.5,71,61.4,83.3,73.7c5.3,5.3,11.9,8.3,18.8,9l7.3,34.3c-4.2,1.5-8.2,4-11.6,7.2c-1.6,1.6-2.9,3.3-4.1,5.2l-23-11.7c0.2-3.3-0.9-6.7-3.5-9.2c-4.7-4.7-12.4-4.7-17.1,0c-4.7,4.8-4.7,12.4,0,17.1c4.5,4.5,11.6,4.7,16.4,0.7l23.4,11.8c-1.6,6-1.5,12.4,0.5,18.4l-31.4,22c-12.2-8.2-28.9-7-39.8,3.9c-12.3,12.3-12.3,32.2,0,44.5c12.3,12.3,32.2,12.3,44.5,0c8.5-8.5,11.1-20.7,7.7-31.5l26.4-26.7c4.8,4.8,10.8,7.7,17,8.7l1.2,15.2c-2.5,1.1-4.8,2.6-6.8,4.6c-8.1,8.1-8.1,21.1,0,29.1s21.1,8.1,29.1,0c8.1-7.9,8.1-21.1,0-29.1c-3.5-3.5-8.1-5.4-12.8-5.9l-1.2-13.7c6.5-0.9,12.8-3.9,17.8-8.9c0.6-0.6,1.1-1.2,1.5-1.8l39.6,26c-1.1,9.1,2,18.6,9,25.6c12.3,12.3,32.2,12.3,44.5,0c12.3-12.3,12.3-32.2,0-44.5C224.5,161.8,204.6,161.8,192.3,174.1L192.3,174.1z"/></g></g>
</svg>